<?xml version="1.0" encoding="UTF-8"?>
<svg width="24px" height="24px" viewBox="0 0 24 24" version="1.1" xmlns="http://www.w3.org/2000/svg">
    <title>Support Icon</title>
    <g stroke="none" stroke-width="1" fill="none" fill-rule="evenodd">
        <path d="M20,2H4C2.9,2 2,2.9 2,4V22L6,18H20C21.1,18 22,17.1 22,16V4C22,2.9 21.1,2 20,2M13,14H11V12H13V14M14.8,9C14.5,9.4 14.1,9.6 13.7,9.8C13.4,10 13.3,10.1 13.2,10.3C13,10.5 13,10.7 13,11H11C11,10.5 11.1,10.2 11.3,9.9C11.5,9.7 11.9,9.4 12.4,9.1C12.7,9 12.9,8.8 13,8.6C13.1,8.4 13.2,8.1 13.2,7.9C13.2,7.6 13.1,7.4 12.9,7.2C12.7,7 12.4,6.9 12.1,6.9C11.8,6.9 11.6,7 11.4,7.1C11.2,7.3 11.1,7.5 11.1,7.8H9.1C9.2,7 9.5,6.4 10,6C10.5,5.6 11.2,5.5 12,5.5C12.9,5.5 13.6,5.7 14.1,6.1C14.6,6.5 14.8,7 14.8,7.7C14.8,8.1 14.7,8.5 14.4,8.8L14.8,9Z" fill="currentColor" fill-rule="nonzero"></path>
    </g>
</svg>
